<?xml version="1.0" encoding="UTF-8"?>
<!DOCTYPE svg PUBLIC "-//W3C//DTD SVG 1.1//EN" "http://www.w3.org/Graphics/SVG/1.1/DTD/svg11.dtd">
<!-- Creator: CorelDRAW 2019 (64-Bit) -->
<svg xmlns="http://www.w3.org/2000/svg" xml:space="preserve" width="31.9501mm" height="33.4926mm" version="1.1" style="shape-rendering:geometricPrecision; text-rendering:geometricPrecision; image-rendering:optimizeQuality; fill-rule:evenodd; clip-rule:evenodd"
viewBox="0 0 4411.6 4624.58"
 xmlns:xlink="http://www.w3.org/1999/xlink">
 <defs>
  <style type="text/css">
   <![CDATA[
    .fil1 {fill:#434242}
    .fil0 {fill:#01A756}
   ]]>
  </style>
 </defs>
 <g id="Layer_x0020_1">
  <metadata id="CorelCorpID_0Corel-Layer"/>
  <g id="_1792370635504">
   <polygon class="fil0" points="3358.88,1132.56 2306.18,2892.27 4411.6,2892.27 "/>
   <path class="fil1" d="M1147.97 2898.32l925.51 0 1208.51 -2108.27 -472.63 -790.05 -1661.39 2898.32zm1429.88 1726.26l-74.69 0 -129.57 -201.97 -101.36 0 0 201.97 -63.27 0 0 -508.36 204.27 0c47.25,0 85.61,13.97 115.07,41.92 29.48,27.95 44.21,65.03 44.21,111.28 0,43.69 -12.7,78.5 -38.11,104.41 -25.41,25.92 -56.65,40.39 -93.74,43.44l137.18 207.31zm-172.24 -257.61c29.98,0 54.36,-9.14 73.17,-27.44 18.79,-18.3 28.2,-41.67 28.2,-70.12 0,-28.46 -9.4,-51.71 -28.2,-69.74 -18.81,-18.03 -43.19,-27.05 -73.17,-27.05l-133.38 0 0 194.34 133.38 0zm546.47 257.61l-63.27 0 0 -451.96 -160.82 0 0 -56.4 385.67 0 0 56.4 -161.58 0 0 451.96zm-897.17 -9.25l-247.08 -612.64 -87.56 0 -246.14 612.64 74.56 0 55.4 -138.93 320.85 0 55.4 138.93 74.56 0zm-148.07 -194.88l-285.57 0 143.28 -362.26 142.29 362.26zm-812.71 -553.18l-63.27 0 0 -233.23 -297.24 0 0 233.23 -63.27 0 0 -508.36 63.27 0 0 218.74 297.24 0 0 -218.74 63.27 0 0 508.36zm578.86 -46.1c-35.32,36.83 -86.75,55.24 -154.34,55.24 -67.58,0 -119.02,-18.42 -154.33,-55.24 -35.32,-36.84 -52.98,-87.28 -52.98,-151.29l0 -310.97 63.27 0 0 309.43c0,47.26 12.44,84.35 37.35,111.28 24.9,26.94 60.46,40.4 106.69,40.4 46.24,0 81.81,-13.46 106.71,-40.4 24.9,-26.93 37.35,-64.01 37.35,-111.28l0 -309.43 63.25 0 0 310.21c0,64.52 -17.66,115.21 -52.97,152.05zm690.91 46.1l-60.98 0 -296.48 -405.47 0 405.47 -63.27 0 0 -508.36 64.79 0 292.67 397.08 0 -397.08 63.27 0 0 508.36zm458.06 9.91c-73.68,0 -135.66,-24.52 -185.96,-73.55 -50.3,-49.03 -75.46,-112.42 -75.46,-190.16 0,-77.74 25.16,-141.01 75.46,-189.77 50.3,-48.78 112.28,-73.17 185.96,-73.17 80.28,0 146.09,31.76 197.4,95.27l-50.3 31.25c-16.25,-21.35 -37.47,-38.37 -63.64,-51.07 -26.17,-12.7 -53.99,-19.05 -83.45,-19.05 -55.89,0 -102.51,19.44 -139.86,58.31 -37.35,38.87 -56.02,88.29 -56.02,148.24 0,59.95 18.67,109.5 56.02,148.63 37.35,39.12 83.97,58.68 139.86,58.68 27.95,0 53.99,-5.47 78.12,-16.39 24.14,-10.92 43.56,-23.75 58.3,-38.48l0 -103.66 -174.53 0 0 -56.4 237.8 0 0 183.68c-52.33,58.43 -118.9,87.65 -199.69,87.65zm464.16 -9.91l-63.27 0 0 -508.36 63.27 0 0 508.36zm406.24 0l-63.27 0 0 -451.96 -160.82 0 0 -56.4 385.67 0 0 56.4 -161.58 0 0 451.96zm676.8 0l-333.07 0 0 -508.36 333.07 0 0 56.4 -269.8 0 0 163.86 264.47 0 0 56.4 -264.47 0 0 175.29 269.8 0 0 56.4zm-3936.12 -502.31l38.23 -46.66c-57.63,-58.31 -131.88,-80.9 -213.44,-80.9 -54.39,0 -106.57,12.66 -149.76,46.89 -38.8,30.74 -58.46,70.45 -58.46,120.02 0,26.33 5.5,51.83 19.62,74.31 12.8,20.38 29.51,36.77 50.58,48.38 22.44,12.36 46.26,22.15 70.63,29.99 26.1,8.4 52.43,16.02 78.95,22.89 24.72,6.39 49.27,13.93 73.04,23.24 21.08,8.26 40.22,20.17 55.58,36.94 15.42,16.83 22.44,37.21 22.44,59.95 0,32.38 -14.13,59 -37.9,80.6 -30.56,27.74 -76.58,34.15 -116.26,34.15 -78.26,0 -143.74,-29.12 -196.73,-85.47l-37.58 48.33c61.27,66.55 141.47,93.08 231.5,93.08 58.42,0 125.25,-9.97 169.5,-51.67 36.25,-34.13 54.68,-75.75 54.68,-125.57 0,-32.14 -7.48,-62.69 -26.43,-88.99 -17.08,-23.75 -38.72,-42.11 -65.68,-53.57 -28.97,-12.32 -58.64,-23.05 -88.62,-32.66 -29.31,-9.39 -58.92,-18.14 -88.77,-25.68 -25.54,-6.46 -50.14,-16.87 -71.03,-33.17 -19.44,-15.15 -30.31,-34.99 -30.31,-59.77 0,-32.02 13.45,-57.76 38.8,-77.19 27.95,-21.42 61.89,-29.09 96.59,-29.09 70.21,0 132.15,21.48 180.84,71.62zm-433.04 -466.63l925.51 0 1208.51 -2108.27 -472.63 -790.05 -1661.39 2898.32z"/>
  </g>
 </g>
</svg>
